<?xml version="1.0" encoding="UTF-8"?>
<svg width="24px" height="21px" viewBox="0 0 24 21" version="1.1" xmlns="http://www.w3.org/2000/svg" xmlns:xlink="http://www.w3.org/1999/xlink">
    <title>Filtered</title>
    <g id="Style-guide" stroke="none" stroke-width="1" fill="none" fill-rule="evenodd">
        <g id="04.-Icons" transform="translate(-1451.000000, -1056.000000)" fill="#007DBA" fill-rule="nonzero">
            <g id="Filtered" transform="translate(1451.000000, 1056.538462)">
                <path d="M12.6923077,7.11538462 C12.1153846,7.11538462 11.5384615,6.53846154 11.5384615,5.96153846 L11.5384615,4.23076923 L0.384615385,4.23076923 C0.192307692,4.23076923 0,4.03846154 0,3.84615385 L0,3.07692308 C0,2.88461538 0.192307692,2.69230769 0.384615385,2.69230769 L11.5384615,2.69230769 L11.5384615,0.961538462 C11.5384615,0.384615385 12.1153846,-1.13686838e-13 12.6923077,-1.13686838e-13 L14.8076923,-1.13686838e-13 C15.3846154,-1.13686838e-13 15.7692308,0.384615385 15.7692308,0.961538462 L15.7692308,2.69230769 L22.6923077,2.69230769 C22.8846154,2.69230769 23.0769231,2.88461538 23.0769231,3.07692308 L23.0769231,3.84615385 C23.0769231,4.03846154 22.8846154,4.23076923 22.6923077,4.23076923 L15.7692308,4.23076923 L15.7692308,5.96153846 C15.7692308,6.53846154 15.1923077,7.11538462 14.6153846,7.11538462 L12.6923077,7.11538462 Z M5.38461538,13.6538462 C4.80769231,13.6538462 4.23076923,13.0769231 4.23076923,12.5 L4.23076923,10.7692308 L0.384615385,10.7692308 C0.192307692,10.7692308 0,10.5769231 0,10.3846154 L0,9.61538462 C0,9.42307692 0.192307692,9.23076923 0.384615385,9.23076923 L4.42307692,9.23076923 L4.42307692,7.5 C4.42307692,6.92307692 5,6.34615385 5.57692308,6.34615385 L7.69230769,6.34615385 C8.26923077,6.34615385 8.84615385,6.92307692 8.84615385,7.5 L8.84615385,9.23076923 L22.8846154,9.23076923 C23.0769231,9.23076923 23.2692308,9.42307692 23.2692308,9.61538462 L23.2692308,10.3846154 C23.2692308,10.5769231 23.0769231,10.7692308 22.8846154,10.7692308 L8.65384615,10.7692308 L8.65384615,12.5 C8.65384615,13.0769231 8.07692308,13.6538462 7.5,13.6538462 L5.38461538,13.6538462 Z M15.5769231,20 C15,20 14.4230769,19.4230769 14.4230769,18.8461538 L14.4230769,17.1153846 L0.384615385,17.1153846 C0.192307692,17.1153846 0,16.9230769 0,16.7307692 L0,15.9615385 C0,15.9615385 0.192307692,15.7692308 0.384615385,15.7692308 L14.4230769,15.7692308 L14.4230769,14.0384615 C14.4230769,13.4615385 15,12.8846154 15.5769231,12.8846154 L17.6923077,12.8846154 C18.2692308,12.8846154 18.8461538,13.4615385 18.8461538,14.0384615 L18.8461538,15.7692308 L22.8846154,15.7692308 C23.0769231,15.7692308 23.2692308,15.9615385 23.2692308,16.1538462 L23.2692308,16.9230769 C23.2692308,17.1153846 23.0769231,17.3076923 22.8846154,17.3076923 L18.8461538,17.3076923 L18.8461538,19.0384615 C18.8461538,19.6153846 18.2692308,20.1923077 17.6923077,20.1923077 L15.5769231,20.1923077 L15.5769231,20 Z" id="_xF1DE_"></path>
            </g>
        </g>
    </g>
</svg>