<?xml version="1.0" encoding="utf-8"?>
<!-- Generator: Adobe Illustrator 21.1.0, SVG Export Plug-In . SVG Version: 6.00 Build 0)  -->
<svg version="1.1" id="Layer_1" xmlns="http://www.w3.org/2000/svg" xmlns:xlink="http://www.w3.org/1999/xlink" x="0px" y="0px"
	 viewBox="0 0 841.9 595.3" style="enable-background:new 0 0 841.9 595.3;" xml:space="preserve">
<style type="text/css">
	.st0{fill:#0DB14B;}
	.st1{fill:#00AEEF;}
	.st2{fill:#F58220;}
</style>
<path class="st0" d="M385.3,182.2c0,0,1.4,7.9-2.8,28l-8,38.9h27.3l8-38.9c3.8-18.3,2.8-28,2.8-28H385.3z"/>
<path class="st0" d="M578.8,182.2l-5.7,27.8h22.3c9.5,0,15.2,4.9,9.9,30.3c-4.7,22.7-12,30.3-22.1,30.3h-22.6l-5.7,27.8h34.5
	c19.4,0,35.4-18,43.6-58c9-43.5-3.5-58.1-19.7-58.1H578.8z"/>
<path class="st0" d="M425.7,160.7c-0.1,2.2,0,5.8-0.5,8.4c-0.9,5.3-2.2,13.2-2.2,13.2c-2.2,16.6,1.4,27.8,18.7,27.8h8.3
	c14.8-1.2,8.2,9.1,3.3,21.7l-24.8,66.6h28.4l27.6-74.9c10.3-28.1,0.2-40.7-10.1-40.7c-8.1,0-11.3-0.2-17.9-0.2
	c-7,0-5.9-6.4-4.8-12.6c0.6-3.6,0.5-7.2,0.7-9.2L425.7,160.7z"/>
<path class="st0" d="M298.3,182.2l-15.6,76.7c-5.1,23.1-15.2,17.6-22,16.4c-2,8.7-4.8,21.8-4.8,21.8s12.2,2.3,22.3,2.1
	c14.6-0.3,24.7-7,31.9-42.1l9.7-47.2h9.8c12.1,0,12,5.3,8.7,21.3l-13.8,67.1h27.3l14.9-72.9c8.6-39.4-4-43.1-22.4-43.1L298.3,182.2z
	"/>
<path class="st0" d="M500.2,160.7c-0.1,2.2,0,5.8-0.5,8.4c-0.9,5.3-2.2,13.2-2.2,13.2c-2.2,16.6,1.4,27.8,18.7,27.8h8.3
	c14.8-1.2,8.2,9.1,3.3,21.7l-24.8,66.6h28.4l27.6-74.9c10.3-28.1,0.2-40.7-10.1-40.7c-8.1,0-11.3-0.2-17.9-0.2
	c-7,0-5.9-6.4-4.8-12.6c0.7-3.6,0.5-7.2,0.7-9.2L500.2,160.7z"/>
<path class="st1" d="M768.3,220.9c2.9,3.4,6.6,3.5,8.1,3.5c0,0,37.8,0,37.8,0c1.7,0,3.4-1.4,3.7-3.1l4.7-22.2
	c0.3-1.7-0.8-3.1-2.5-3.1l-31.8,0c-1.3,0-2.4-0.6-3.1-1.5L760,164.4c-2.1-2.6-5.2-4.3-9-4.3c-4.5,0-7.3,1.8-10,4.1
	c0.2-0.2-35.4,29.7-35.4,29.7c-1.5,1.3-3.4,2-5.4,2l-23.7,0c-1.7,0-3.6,1.5-3.9,3.2l-4.6,22.1c-0.3,1.7,0.9,3,2.6,3h42.2
	c4.6,0,6.9-2.1,7.4-2.6l25.5-21.3c0.8-0.7,1.7-1,2.8-1c1.2,0,2.3,0.5,3.1,1.4L768.3,220.9z"/>
<path class="st0" d="M710.8,254.2c-2.9-3.4-6.6-3.5-8.1-3.5c0,0-37.8,0-37.8,0c-1.7,0-3.4,1.4-3.7,3.1l-4.7,22.2
	c-0.3,1.7,0.8,3.1,2.5,3.1l31.8,0c1.3,0,2.4,0.6,3.1,1.5l25.2,30.1c2.1,2.6,5.2,4.2,9,4.2c4.5,0,7.3-1.8,10-4.1
	c-0.2,0.2,35.4-29.7,35.4-29.7c1.5-1.3,3.4-2,5.4-2l23.7,0c1.7,0,3.6-1.4,3.9-3.2l4.6-22.1c0.3-1.7-0.9-3-2.6-3h-42.2
	c-4.6,0-6.9,2.2-7.4,2.6l-25.5,21.3c-0.8,0.7-1.7,1-2.8,1c-1.2,0-2.3-0.5-3.1-1.4L710.8,254.2z"/>
<path class="st1" d="M155.6,353.4l-6.7,32.8h-28.6l9.7-47.5H145C152.6,338.7,157.7,343.2,155.6,353.4 M174.7,406.7l11.7-57.3
	c5.1-25.1-10.7-31.8-25.4-31.8h-57.2l-4.3,21h14.2l-2.6,2c-7.4,5.6-13.8,13.1-15.1,19.7l-9.5,46.3H174.7z"/>
<path class="st1" d="M258.7,353.4l7.3-35.7h-35.1l7.4-36.4h-1.5l-18.9,6.5c-7.5,2.6-12.7,8.9-14.1,15.6l-7.4,36.2h34.4l-4.1,19.9
	c-2.4,11.6-8.2,22.2-20,26.5l-8.7,3.1l-4.2,20.4h3.1l14.1-5C238.6,394.6,253.4,379.6,258.7,353.4"/>
<path class="st1" d="M379.3,361.5l8.9-43.8h-28.3l-8.9,43.5c-4,19.7-17.9,25.5-32,25.5h-24.5l14.1-69h-28.3l-18.2,89h57.6
	C343.7,406.7,372.1,396.6,379.3,361.5 M341.4,351.1l6.8-33.4h-27.8l-12.3,60.4h1.5l17.7-8.9C335.6,364.8,340,357.7,341.4,351.1"/>
<polygon class="st1" points="413.9,406.7 432.1,317.7 402.1,317.7 384,406.7 "/>
<path class="st1" d="M534,356.6c5.6-27.3-3.4-39.2-26.1-39.2c-10.9,0-18.3,3-24.4,8.6l-5.1,5c-1.4,1.2-1.7,0.3-1.5-0.7
	c1-5,1.4-7.8,1.3-9.8c-0.1-1.2-0.3-2-0.6-2.8h-28l-18.2,89h29.9l12.9-63.2c0.2-0.8,0.8-3,3.2-3.6c2.8-0.8,6.5-1.8,11.6-1.8
	c12.4,0,16.7,5,12.6,24.8c-3.6,17.5-10.2,24.8-21.9,24.8c-3.8,0-4.8-1-6.5-2l-4.2,20.5c3.1,1.2,8.7,1.8,14.5,1.8
	c25.1,0,43.1-15.9,48.3-41.4L534,356.6z"/>
<path class="st2" d="M52.3,400.2c9,0,16.3,7.3,16.3,16.3c0,9-7.3,16.3-16.3,16.3c-9,0-16.3-7.3-16.3-16.3
	C36,407.5,43.3,400.2,52.3,400.2"/>
<path class="st2" d="M513.8,421.4c-145.9,13.1-382.6,18.8-453.4,19.4c13.7-2.4,21.3-10.3,21.3-19.3L513.8,421.4z"/>
</svg>
